<svg xmlns="http://www.w3.org/2000/svg" version="1.1" xmlns:xlink="http://www.w3.org/1999/xlink" xmlns:svgjs="http://svgjs.dev/svgjs" viewBox="0 0 800 400"><path d="M191.03138732910156,305.82958984375C194.31987762451172,301.49476114908856,204.63377888997397,287.7428894042969,210.7623291015625,279.82061767578125C216.89087931315103,271.8983459472656,221.37518564860025,263.6771240234375,227.8026885986328,258.29595947265625C234.23019154866537,252.914794921875,241.4050725301107,250.52316538492838,249.3273468017578,247.53363037109375C257.24962107340497,244.54409535725912,265.6203384399414,241.10613250732422,275.3363342285156,240.35874938964844C285.05233001708984,239.61136627197266,298.6547139485677,241.40508778889975,307.6233215332031,243.04933166503906C316.59192911783856,244.69357554117838,322.5709991455078,248.43049112955728,329.1479797363281,250.22421264648438C335.72496032714844,252.01793416341147,341.255610148112,255.15695190429688,347.085205078125,253.81166076660156C352.914800008138,252.46636962890625,360.3886311848958,249.1778767903646,364.12554931640625,242.1524658203125C367.8624674479167,235.1270548502604,369.207758585612,220.47832743326822,369.5067138671875,211.65919494628906C369.805669148763,202.8400624593099,367.71300252278644,197.45889790852866,365.9192810058594,189.2376708984375C364.1255594889323,181.01644388834634,362.0328725179036,170.10462951660156,358.744384765625,162.3318328857422C355.4558970133464,154.5590362548828,349.92527262369794,148.8789176940918,346.1883544921875,142.60089111328125C342.45143636067706,136.3228645324707,341.5545654296875,130.04483795166016,336.3228759765625,124.6636734008789C331.0911865234375,119.28250885009766,321.52467854817706,114.64873123168945,314.7982177734375,110.31390380859375C308.07175699869794,105.97907638549805,302.09266153971356,102.09267679850261,295.964111328125,98.65470886230469C289.83556111653644,95.21674092610677,284.90284729003906,92.52615610758464,278.02691650390625,89.68609619140625C271.15098571777344,86.84603627522786,263.67713928222656,81.76382573445638,254.70852661132812,81.61434936523438C245.7399139404297,81.46487299601237,231.09117635091147,84.15545654296875,224.21524047851562,88.78923797607422C217.33930460611978,93.42301940917969,215.39610799153647,102.54110336303711,213.45291137695312,109.41703796386719C211.50971476236978,116.29297256469727,211.5097223917643,124.36472574869792,212.55606079101562,130.0448455810547C213.60239919026694,135.72496541341147,215.994021097819,138.86397552490234,219.73094177246094,143.4977569580078C223.46786244710287,148.13153839111328,228.10165150960287,153.9611358642578,234.9775848388672,157.8475341796875C241.8535181681315,161.7339324951172,254.5590387980143,165.02242533365884,260.9865417480469,166.81614685058594C267.4140446980794,168.60986836751303,267.5635274251302,168.310910542806,273.5426025390625,168.60986328125C279.5216776529948,168.908816019694,289.6861063639323,169.35724639892578,296.8609924316406,168.60986328125C304.03587849934894,167.86248016357422,310.3138936360677,165.62033335367838,316.5919189453125,164.1255645751953C322.8699442545573,162.63079579671225,327.0553029378255,163.52764892578125,334.5291442871094,159.64125061035156C342.00298563639325,155.75485229492188,353.36321512858075,146.4872932434082,361.4349670410156,140.8071746826172C369.5067189534505,135.12705612182617,376.2331949869792,132.13751983642578,382.95965576171875,125.56053924560547C389.6861165364583,118.98355865478516,395.9641367594401,108.81913248697917,401.7937316894531,101.34529113769531C407.6233266194661,93.87144978841145,412.2571055094401,86.69656372070312,417.9372253417969,80.71749114990234C423.6173451741536,74.73841857910156,429.1479949951172,69.20777702331543,435.87445068359375,65.47085571289062C442.6009063720703,61.73393440246582,454.5590413411458,59.4917786916097,458.29595947265625,58.295963287353516" fill="none" stroke-width="1" stroke="hsl(0, 0%, 0%)" stroke-linecap="round"></path><defs><linearGradient id="SvgjsLinearGradient1001"><stop stop-color="hsl(37, 99%, 67%)" offset="0"></stop><stop stop-color="hsl(316, 73%, 52%)" offset="1"></stop></linearGradient></defs></svg>